<svg xmlns="http://www.w3.org/2000/svg" width="512" height="512" viewBox="0 0 512 512">
<rect width="512" height="512" fill="#FFFFFF"/>
<g transform="translate(0,0) rotate(270 85.33333333333333 85.33333333333333)"><rect x="0" y="0" width="170.66666666666666" height="170.66666666666666" fill="#F3722C" /><rect x="0" y="0" width="34.13333333333333" height="170.66666666666666" fill="#000000" /><rect x="34.13333333333333" y="0" width="34.13333333333333" height="170.66666666666666" fill="#F3722C" /><rect x="68.26666666666667" y="0" width="34.13333333333333" height="170.66666666666666" fill="#000000" /><rect x="102.4" y="0" width="34.13333333333333" height="170.66666666666666" fill="#F3722C" /><rect x="136.53333333333333" y="0" width="34.13333333333333" height="170.66666666666666" fill="#000000" /></g>
<g transform="translate(170.66666666666666,0) rotate(90 85.33333333333333 85.33333333333333)"><rect x="0" y="0" width="170.66666666666666" height="170.66666666666666" fill="#F94144" /><path d="M 0 85.33333333333333 A 85.33333333333333 85.33333333333333 0 1 1 170.66666666666666 85.33333333333333 L 170.66666666666666 170.66666666666666 L 0 170.66666666666666 Z" fill="#577590" /></g>
<g transform="translate(341.3333333333333,0) rotate(180 85.33333333333333 85.33333333333333)"><rect x="0" y="0" width="170.66666666666666" height="170.66666666666666" fill="#F94144" /><path d="M 0 85.33333333333333 A 85.33333333333333 85.33333333333333 0 1 1 170.66666666666666 85.33333333333333 L 170.66666666666666 170.66666666666666 L 0 170.66666666666666 Z" fill="#F9C74F" /></g>
<g transform="translate(0,170.66666666666666) rotate(180 85.33333333333333 85.33333333333333)"><rect x="0" y="0" width="170.66666666666666" height="170.66666666666666" fill="#F9C74F" /><path d="M 0 85.33333333333333 A 85.33333333333333 85.33333333333333 0 1 1 170.66666666666666 85.33333333333333 L 170.66666666666666 170.66666666666666 L 0 170.66666666666666 Z" fill="#FEEAD3" /></g>
<g transform="translate(170.66666666666666,170.66666666666666) rotate(270 85.33333333333333 85.33333333333333)"><rect x="0" y="0" width="170.66666666666666" height="170.66666666666666" fill="#000000" /><polygon points="85.33333333333333,0 170.66666666666666,85.33333333333333 85.33333333333333,170.66666666666666 0,85.33333333333333" fill="#F9C74F" /></g>
<g transform="translate(341.3333333333333,170.66666666666666) rotate(270 85.33333333333333 85.33333333333333)"><rect x="0" y="0" width="170.66666666666666" height="170.66666666666666" fill="#FEEAD3" /><rect width="170.66666666666666" height="170.66666666666666" fill="#F9C74F" /></g>
<g transform="translate(0,341.3333333333333) rotate(90 85.33333333333333 85.33333333333333)"><rect x="0" y="0" width="170.66666666666666" height="170.66666666666666" fill="#43AA8B" /><polygon points="85.33333333333333,0 170.66666666666666,85.33333333333333 85.33333333333333,170.66666666666666 0,85.33333333333333" fill="#000000" /></g>
<g transform="translate(170.66666666666666,341.3333333333333) rotate(90 85.33333333333333 85.33333333333333)"><rect x="0" y="0" width="170.66666666666666" height="170.66666666666666" fill="#43AA8B" /><path d="M 0 85.33333333333333 A 85.33333333333333 85.33333333333333 0 1 1 170.66666666666666 85.33333333333333 L 170.66666666666666 170.66666666666666 L 0 170.66666666666666 Z" fill="#F3722C" /></g>
<g transform="translate(341.3333333333333,341.3333333333333) rotate(180 85.33333333333333 85.33333333333333)"><rect x="0" y="0" width="170.66666666666666" height="170.66666666666666" fill="#F94144" /><polygon points="0,0 85.33333333333333,42.666666666666664 170.66666666666666,0" fill="#F9C74F" /><polygon points="0,42.666666666666664 85.33333333333333,85.33333333333333 170.66666666666666,42.666666666666664" fill="#F9C74F" /><polygon points="0,85.33333333333333 85.33333333333333,128 170.66666666666666,85.33333333333333" fill="#F9C74F" /></g>
</svg>